<?xml version="1.0" standalone="no"?>
<!DOCTYPE svg PUBLIC "-//W3C//DTD SVG 20010904//EN"
 "http://www.w3.org/TR/2001/REC-SVG-20010904/DTD/svg10.dtd">
<svg version="1.0" xmlns="http://www.w3.org/2000/svg"
 width="1608.000000pt" height="1608.000000pt" viewBox="0 0 1608.000000 1608.000000"
 preserveAspectRatio="xMidYMid meet">
<metadata>
Created by potrace 1.14, written by Peter Selinger 2001-2017
</metadata>
<g transform="translate(0.000000,1608.000000) scale(0.100000,-0.100000)"
fill="#000000" stroke="none">
<path d="M1380 11222 c0 -3308 3 -4631 11 -4639 8 -8 8 -13 0 -17 -6 -4 -11
-12 -11 -17 0 -6 5 -7 11 -3 8 4 8 0 0 -15 -7 -11 -8 -21 -3 -21 4 0 8 -9 8
-20 0 -11 -4 -20 -9 -20 -5 0 -5 -6 0 -12 6 -7 9 -21 8 -30 -2 -10 1 -18 7
-18 6 0 5 -6 -2 -15 -10 -12 -10 -15 1 -15 12 0 12 -2 0 -9 -9 -6 -10 -11 -2
-15 8 -5 8 -13 1 -27 -6 -11 -7 -19 -1 -19 5 0 9 -19 10 -42 3 -103 7 -144 14
-155 5 -8 3 -13 -5 -13 -8 0 -9 -3 -3 -8 6 -4 10 -24 10 -45 0 -24 5 -42 15
-48 13 -7 12 -8 -3 -9 -14 0 -16 -4 -9 -18 5 -9 7 -23 4 -31 -3 -10 0 -11 9
-5 11 6 12 5 2 -7 -10 -12 -10 -18 0 -29 10 -10 9 -11 -3 -5 -13 8 -13 7 -1
-8 7 -9 10 -17 6 -17 -4 0 -1 -8 6 -17 10 -11 10 -14 2 -9 -8 4 -13 1 -13 -9
0 -10 5 -13 12 -9 7 4 8 3 4 -5 -4 -6 -2 -19 6 -28 9 -12 9 -15 1 -9 -9 5 -13
0 -13 -13 0 -12 4 -21 9 -21 4 0 7 -11 5 -25 -1 -14 1 -39 6 -55 6 -21 5 -30
-3 -30 -8 0 -9 -3 -1 -8 6 -4 10 -18 10 -32 0 -14 3 -31 8 -38 4 -7 2 -12 -6
-12 -8 0 -7 -4 4 -11 9 -5 15 -16 12 -23 -3 -8 0 -17 6 -21 8 -5 8 -11 -1 -21
-8 -10 -8 -14 -1 -14 6 0 9 -7 6 -15 -4 -8 0 -23 7 -32 10 -12 10 -15 2 -9
-19 11 -16 -5 5 -21 9 -8 11 -12 5 -8 -8 4 -13 0 -13 -9 0 -9 6 -16 13 -16 8
0 7 -4 -3 -10 -11 -7 -11 -10 -2 -10 7 0 11 -4 7 -9 -3 -5 0 -13 6 -17 8 -4 7
-9 -2 -15 -10 -6 -11 -11 -3 -16 6 -5 10 -16 8 -26 -1 -9 1 -17 6 -17 4 0 8
-10 8 -22 1 -56 5 -78 13 -78 5 0 7 -13 5 -30 -2 -17 1 -30 6 -30 5 0 6 -9 3
-20 -3 -11 -2 -20 3 -20 6 0 13 -7 16 -16 4 -9 2 -13 -5 -8 -13 8 -2 -35 12
-50 13 -15 11 -28 -3 -20 -10 6 -10 4 -1 -7 7 -7 13 -23 13 -34 0 -12 3 -25 7
-28 3 -4 8 -24 10 -44 2 -21 7 -40 11 -43 7 -5 8 -9 16 -53 3 -12 5 -24 6 -27
2 -3 2 -9 1 -14 -1 -4 4 -15 11 -24 11 -13 11 -14 -2 -7 -9 5 -7 -1 5 -15 11
-13 14 -20 6 -15 -11 7 -11 4 1 -14 9 -12 14 -31 11 -42 -3 -10 0 -19 6 -19 6
0 11 -13 11 -30 0 -16 4 -30 8 -30 7 0 12 -24 15 -67 0 -7 4 -13 8 -13 4 0 10
-7 13 -16 4 -9 2 -13 -5 -8 -8 5 -8 1 0 -13 6 -11 7 -24 3 -28 -4 -5 -2 -5 4
-2 9 5 23 -29 24 -58 0 -3 7 -19 15 -35 9 -17 12 -30 8 -30 -5 0 -1 -5 7 -10
13 -9 13 -10 0 -10 -9 0 -11 -3 -5 -8 15 -10 38 -63 41 -91 2 -13 9 -28 16
-32 11 -7 11 -9 0 -9 -10 0 -9 -4 2 -16 9 -8 14 -20 11 -25 -4 -5 -1 -9 6 -9
7 0 9 -3 6 -7 -4 -3 -2 -12 5 -20 6 -7 8 -16 5 -19 -3 -4 1 -13 9 -21 8 -8 12
-19 9 -24 -4 -5 -1 -9 5 -9 6 0 9 -4 6 -9 -3 -5 4 -21 16 -37 13 -15 17 -25
10 -21 -8 6 -10 3 -6 -7 3 -9 10 -16 15 -16 4 0 6 -6 3 -14 -3 -7 1 -20 8 -27
7 -8 14 -21 16 -29 2 -8 9 -18 15 -22 8 -5 7 -8 -3 -8 -9 0 -11 -3 -4 -8 15
-10 53 -93 40 -86 -6 3 -3 -1 6 -9 10 -8 15 -17 11 -20 -3 -4 -1 -7 6 -7 7 0
9 -4 6 -10 -3 -5 -1 -10 4 -10 6 0 11 -5 11 -11 0 -5 -6 -7 -12 -4 -7 4 -5 0
5 -8 10 -8 19 -24 20 -35 0 -11 5 -18 9 -16 4 3 8 -2 8 -11 0 -9 7 -23 15 -32
8 -8 13 -19 10 -24 -4 -5 -1 -9 5 -9 7 0 10 -7 6 -15 -3 -8 0 -18 7 -22 7 -5
23 -30 37 -58 14 -27 28 -52 32 -53 5 -2 8 -12 8 -23 0 -10 4 -19 9 -19 10 0
27 -39 23 -53 -1 -4 3 -7 9 -7 5 0 17 -17 25 -37 9 -21 25 -48 35 -59 11 -12
21 -31 22 -42 0 -11 5 -18 9 -16 4 3 8 -2 8 -10 0 -9 4 -16 8 -16 8 0 36 -51
32 -58 -1 -2 8 -12 20 -22 12 -10 20 -21 18 -24 -2 -3 6 -16 17 -28 10 -13 19
-25 20 -28 0 -3 4 -4 10 -2 5 2 7 0 3 -4 -4 -4 1 -19 12 -34 11 -15 17 -30 13
-34 -3 -3 1 -6 11 -6 9 0 15 -4 12 -8 -3 -5 6 -20 19 -34 13 -14 21 -29 18
-32 -4 -3 -1 -6 6 -6 7 0 10 -4 7 -8 -3 -5 4 -15 15 -22 10 -8 19 -19 19 -25
0 -5 14 -25 31 -42 16 -18 27 -33 24 -33 -3 0 3 -10 14 -22 11 -11 17 -26 14
-32 -3 -6 -3 -8 2 -4 4 4 24 -14 43 -40 20 -26 43 -52 52 -59 8 -7 11 -13 7
-13 -5 0 4 -14 20 -30 15 -17 38 -42 51 -55 12 -13 22 -28 22 -32 0 -5 9 -14
20 -21 11 -7 20 -19 20 -27 0 -8 7 -15 15 -15 8 0 15 -5 15 -11 0 -6 20 -31
45 -55 25 -24 44 -44 42 -44 -3 0 12 -17 32 -38 20 -22 39 -37 44 -35 4 2 7
-1 7 -8 0 -16 114 -129 131 -129 7 0 10 -3 6 -6 -6 -6 16 -34 27 -35 2 0 34
-28 70 -62 129 -124 154 -145 160 -140 3 3 8 -2 12 -11 3 -9 10 -14 14 -11 5
3 11 -4 15 -15 4 -11 11 -18 16 -15 5 4 9 1 9 -5 0 -6 5 -8 10 -5 5 3 10 -1
10 -9 0 -8 9 -18 20 -21 11 -3 20 -11 20 -16 0 -6 4 -7 10 -4 6 3 10 -1 10
-10 0 -9 4 -13 10 -10 5 3 10 1 10 -5 0 -6 4 -8 10 -5 6 3 10 -1 10 -9 0 -9 5
-16 11 -16 6 0 25 -11 43 -25 17 -14 36 -29 41 -33 6 -4 18 -11 28 -15 9 -3
17 -11 17 -16 0 -5 9 -13 20 -16 11 -4 18 -11 15 -16 -3 -5 0 -6 8 -3 8 3 17
-2 21 -11 3 -9 10 -13 16 -10 6 3 13 -1 16 -9 3 -9 13 -16 21 -16 8 0 11 -5 7
-12 -4 -6 -3 -8 4 -4 6 3 17 -1 25 -9 9 -8 20 -15 26 -15 6 0 11 -5 11 -11 0
-5 5 -7 10 -4 6 3 13 -1 16 -9 3 -9 10 -13 15 -10 5 3 9 0 9 -6 0 -6 4 -8 10
-5 6 3 10 -1 10 -10 0 -9 4 -14 9 -10 5 3 16 -1 24 -9 8 -8 17 -12 21 -9 3 4
6 1 6 -5 0 -7 7 -12 16 -12 9 0 12 -5 8 -12 -4 -6 -3 -8 3 -5 6 4 22 -2 35
-13 14 -11 28 -16 32 -13 3 3 6 1 6 -5 0 -7 9 -12 21 -12 11 0 17 -4 14 -10
-3 -5 0 -10 7 -10 8 0 35 -13 60 -29 25 -16 49 -27 52 -24 3 4 6 1 6 -6 0 -7
4 -9 10 -6 5 3 10 1 10 -5 0 -6 4 -8 10 -5 5 3 10 1 10 -5 0 -6 4 -8 10 -5 5
3 10 2 10 -3 0 -12 80 -53 91 -46 5 3 9 1 9 -4 0 -6 12 -15 28 -21 15 -5 38
-17 52 -25 14 -8 40 -20 57 -26 18 -7 31 -15 29 -19 -3 -4 7 -8 20 -9 14 -1
32 -9 40 -17 17 -17 28 -20 19 -5 -3 6 1 7 9 4 9 -3 16 -10 16 -15 0 -5 9 -9
21 -9 13 0 18 -4 13 -12 -4 -6 -3 -8 3 -5 5 3 22 0 37 -8 14 -8 24 -10 20 -4
-3 6 3 5 15 -3 12 -7 21 -16 21 -20 0 -4 9 -5 20 -3 11 2 20 0 20 -5 0 -7 27
-20 50 -25 24 -5 56 -20 62 -29 5 -7 8 -6 8 3 0 12 3 11 13 -2 6 -9 28 -19 47
-22 19 -3 37 -10 38 -16 2 -5 8 -7 13 -3 5 3 9 1 9 -5 0 -5 9 -8 20 -6 11 2
20 0 20 -6 0 -5 11 -9 25 -9 14 0 25 -5 25 -11 0 -5 4 -8 9 -4 5 3 13 0 17 -6
4 -8 9 -7 15 2 7 12 9 12 9 0 0 -8 6 -11 15 -7 9 3 18 -1 21 -9 3 -8 12 -11
21 -8 9 4 14 2 10 -3 -3 -6 5 -11 19 -12 46 -3 54 -5 54 -14 0 -4 11 -8 25 -8
14 0 25 -6 25 -12 0 -9 4 -8 10 2 7 11 10 11 10 2 0 -7 4 -11 9 -7 5 3 12 1
16 -5 4 -6 11 -8 16 -5 5 4 9 0 9 -7 0 -9 3 -9 10 2 8 12 10 12 10 1 0 -9 8
-12 25 -9 14 3 29 0 33 -7 10 -16 45 -29 36 -12 -5 9 -4 9 7 -1 7 -6 24 -12
37 -12 16 0 21 -4 16 -12 -5 -9 -3 -9 9 1 14 11 18 11 23 -3 5 -12 10 -13 25
-5 15 7 21 6 25 -5 3 -8 12 -12 20 -9 8 3 20 0 28 -6 7 -6 16 -8 19 -4 4 3 14
0 24 -8 14 -11 15 -11 9 0 -7 10 -3 10 15 -2 13 -8 34 -14 47 -12 12 1 22 -1
22 -5 0 -3 10 -7 23 -7 21 -1 59 -9 65 -13 1 -2 10 -3 20 -4 9 -1 23 -5 31
-10 10 -7 12 -5 7 5 -4 8 -1 7 6 -3 10 -12 19 -13 31 -7 11 7 17 7 17 0 0 -5
9 -7 20 -4 11 3 20 1 20 -3 0 -5 16 -10 36 -11 20 -1 41 -6 48 -12 7 -6 17 -6
26 -1 18 11 33 3 24 -13 -5 -9 -4 -9 5 -1 15 14 63 6 54 -9 -4 -6 -1 -7 8 -1
19 12 39 14 39 4 0 -5 8 -7 18 -5 9 1 25 -2 35 -7 11 -6 17 -5 17 3 0 8 4 8
15 -1 8 -7 21 -10 30 -7 8 4 17 2 20 -3 4 -6 11 -10 16 -10 6 0 7 6 3 13 -5 8
-3 8 9 -2 9 -7 30 -11 47 -9 16 3 30 1 30 -3 0 -4 9 -5 20 -2 11 3 20 1 20 -5
0 -6 13 -8 31 -5 24 3 29 2 23 -9 -6 -10 -5 -11 7 -2 8 6 23 9 34 7 11 -2 31
-5 45 -7 14 -1 31 -6 38 -10 7 -4 12 -2 12 5 0 8 5 7 17 -2 15 -12 16 -12 8 1
-7 12 -6 13 6 3 11 -9 19 -9 26 -2 8 8 13 7 18 -2 6 -8 4 -10 -5 -4 -9 5 -11
4 -6 -4 4 -6 12 -8 19 -4 17 10 89 4 106 -10 8 -7 12 -7 8 -1 -4 7 5 11 23 11
16 0 27 -3 25 -7 -2 -3 5 -6 15 -6 10 0 16 4 14 8 -3 4 0 8 5 8 6 0 11 -6 11
-12 0 -9 4 -8 10 2 9 13 10 13 10 0 0 -13 1 -13 10 0 7 11 10 11 10 2 0 -7 4
-10 10 -7 5 3 10 1 10 -4 0 -6 5 -11 11 -11 5 0 7 5 4 10 -3 6 1 10 10 10 10
0 13 -5 9 -12 -5 -9 -3 -9 9 1 14 11 18 11 23 -3 3 -9 14 -16 23 -16 14 0 14
2 1 10 -9 6 -10 10 -3 10 6 0 15 -5 19 -11 4 -8 9 -7 15 2 7 11 9 11 9 -1 0
-13 1 -13 10 0 5 8 10 10 10 5 0 -6 9 -11 20 -11 11 0 20 5 20 11 0 5 5 3 10
-5 8 -13 13 -13 31 -2 11 8 18 9 14 3 -9 -15 8 -14 24 2 11 9 13 9 7 0 -10
-17 26 -17 43 -1 11 10 13 10 7 1 -4 -7 -2 -13 3 -13 6 0 11 6 11 13 0 8 3 8
8 2 9 -14 173 -15 165 -2 -4 6 -1 7 8 1 21 -13 73 -13 81 0 6 8 8 8 8 -1 0
-15 60 -14 60 1 0 6 5 4 10 -4 8 -13 13 -13 31 -2 15 10 24 11 32 3 13 -13 31
-15 23 -3 -6 10 45 10 61 -1 6 -4 14 -1 16 5 4 10 6 10 6 0 1 -10 6 -10 23 2
26 19 42 21 32 5 -4 -8 0 -8 15 0 11 7 21 9 21 5 0 -3 7 -1 16 7 9 7 18 9 22
3 10 -13 35 -17 27 -4 -3 5 -1 10 4 10 6 0 11 -4 11 -10 0 -6 9 -6 25 0 14 5
25 6 25 1 0 -4 7 -8 15 -8 8 0 11 5 8 10 -3 6 7 8 26 5 18 -3 31 0 31 6 0 6 5
4 10 -4 5 -8 10 -10 10 -4 0 6 17 9 41 7 27 -2 38 0 33 8 -4 8 0 8 15 0 11 -7
21 -8 21 -3 0 5 7 9 15 9 8 0 15 -5 15 -11 0 -6 5 -4 10 4 5 8 10 11 10 6 0
-5 6 -3 14 3 11 10 17 8 25 -6 6 -10 11 -12 11 -5 0 6 7 12 16 12 8 0 13 4 10
9 -4 5 3 7 14 4 11 -3 17 -10 13 -17 -4 -6 1 -4 12 4 10 8 20 14 22 13 1 -2 4
-3 6 -2 1 1 20 3 42 5 22 1 49 5 60 7 11 3 25 0 32 -5 7 -6 14 -5 19 3 5 8 3
9 -6 4 -8 -5 -11 -4 -6 3 4 6 12 9 20 6 7 -3 25 0 40 6 25 9 28 8 22 -7 -5
-15 -4 -15 9 1 11 14 15 16 15 5 1 -10 3 -9 11 4 7 12 15 15 27 8 11 -6 24 -6
36 1 10 5 26 8 37 5 10 -3 19 -1 19 3 0 5 9 7 20 5 11 -2 20 1 20 6 0 6 8 5
21 -2 17 -9 20 -8 14 2 -6 9 -3 11 8 6 10 -4 17 -1 17 6 0 8 4 6 10 -3 6 -9
10 -10 10 -3 0 6 8 12 18 12 44 1 107 13 110 22 2 6 11 4 20 -3 12 -10 14 -10
8 0 -5 8 2 12 23 12 17 0 33 -1 35 -2 2 -2 14 6 27 17 12 11 19 15 16 9 -4 -7
0 -14 8 -18 8 -3 14 0 12 7 -1 7 6 11 16 9 9 -2 17 2 17 9 0 8 4 8 15 -1 11
-9 15 -9 15 -1 0 7 5 9 10 6 6 -3 10 -2 10 4 0 6 7 8 15 5 8 -4 23 0 32 7 14
12 16 12 8 -1 -8 -13 -7 -13 8 -1 9 7 17 10 17 6 0 -4 7 -2 15 5 8 7 15 9 15
4 0 -5 5 -2 10 6 6 9 10 10 10 3 0 -9 7 -8 27 2 15 8 30 12 35 9 4 -3 14 -2
21 3 12 7 18 9 47 15 8 2 21 7 28 11 7 5 12 3 12 -5 1 -9 4 -8 10 3 6 10 20
15 35 14 14 -2 23 1 19 6 -3 5 5 9 18 9 35 0 68 11 63 21 -3 4 6 6 21 3 14 -3
23 -1 20 5 -3 5 3 7 14 4 11 -3 20 0 20 6 0 5 7 8 15 5 8 -4 15 -2 15 3 0 5
14 10 32 11 18 2 35 8 39 14 4 6 12 7 18 4 6 -4 11 -2 11 5 0 7 3 9 7 6 3 -4
13 -1 21 6 13 10 14 9 8 -2 -6 -9 -1 -8 17 3 14 10 38 19 53 22 16 3 31 8 34
12 3 4 11 8 18 10 6 1 18 3 25 5 6 1 14 4 17 7 3 4 24 12 48 18 23 7 40 17 37
22 -4 6 -1 10 4 10 6 0 11 -5 11 -12 0 -7 6 -6 18 4 9 9 23 13 31 10 8 -3 11
0 7 7 -5 7 -1 9 8 5 9 -3 16 -1 16 6 0 6 4 9 9 5 5 -3 12 -1 16 5 4 6 10 8 15
5 5 -3 13 3 19 12 8 14 11 15 11 3 0 -12 3 -11 11 3 6 9 14 15 18 12 5 -2 27
5 50 16 23 11 46 17 52 14 5 -4 8 -1 7 7 -2 7 3 12 10 11 6 -2 12 1 12 6 0 5
8 8 17 7 10 -2 26 5 37 15 10 10 23 16 28 13 5 -3 18 2 29 12 10 9 19 14 19
10 0 -4 7 0 16 8 8 9 20 14 25 11 5 -4 9 -2 9 3 0 9 40 24 56 21 4 0 10 5 15
12 4 7 16 14 26 15 9 2 19 8 21 13 2 6 12 11 23 11 10 0 19 5 19 11 0 6 7 8
16 5 12 -5 15 -2 10 9 -3 10 -2 13 5 10 5 -4 16 -1 24 5 8 7 15 9 15 4 0 -5 4
-3 9 5 5 8 18 16 28 17 9 2 19 8 21 13 2 6 12 11 22 11 10 0 28 11 41 24 19
20 27 22 38 13 11 -9 13 -9 8 0 -4 7 10 19 37 33 24 11 50 27 56 35 7 8 16 13
20 10 4 -3 13 2 20 10 7 8 19 15 26 15 8 0 14 7 14 16 0 8 4 12 10 9 13 -8 52
19 42 30 -4 5 -2 5 5 2 6 -4 19 0 27 9 9 8 16 12 16 7 0 -4 5 0 11 10 5 9 19
17 29 17 10 0 23 6 27 13 4 6 42 35 83 62 91 61 96 64 126 92 14 13 27 23 29
23 14 0 54 33 50 41 -3 4 4 6 15 4 11 -2 18 0 16 4 -3 4 4 15 15 24 10 9 19
13 19 9 0 -4 5 1 11 10 5 10 17 18 24 18 8 0 15 8 15 17 0 9 3 14 6 10 7 -6
15 0 69 50 19 18 35 30 35 27 0 -4 19 12 42 35 24 22 46 41 51 41 4 0 5 4 2
10 -3 5 1 10 9 10 9 0 16 4 16 9 0 5 9 12 19 16 11 3 23 15 26 26 4 11 9 18
12 15 7 -7 69 55 66 66 -2 4 4 8 12 8 9 0 18 7 21 15 4 8 10 12 15 9 5 -3 9
-1 9 3 0 5 52 62 115 126 63 65 115 122 115 127 0 6 5 9 12 7 7 -1 12 4 13 11
0 7 7 17 15 22 8 5 12 10 8 10 -4 0 3 10 15 23 12 13 25 22 30 20 4 -2 7 1 7
7 0 6 15 27 33 47 17 19 31 39 30 44 -2 5 1 8 6 6 5 -1 10 3 12 8 2 6 14 20
26 31 13 12 23 25 23 30 0 5 14 22 31 37 18 15 29 30 26 33 -3 4 4 16 16 28
12 11 36 39 52 61 16 22 35 44 42 48 7 4 13 15 13 23 0 9 5 12 12 8 7 -4 8 -3
4 5 -5 7 1 20 15 32 12 10 18 19 13 19 -5 0 -4 4 1 8 21 15 74 100 67 107 -4
5 -2 5 4 2 11 -6 29 19 26 36 -1 4 2 7 7 7 5 0 13 9 16 20 4 11 11 17 17 14 7
-5 9 -1 5 9 -3 10 -3 17 2 17 5 0 16 16 25 35 9 19 22 35 28 35 6 0 9 3 5 6
-3 4 12 33 33 65 22 32 40 63 40 68 0 6 5 11 11 11 6 0 9 7 5 15 -3 9 0 15 9
15 8 0 16 5 16 10 4 31 30 80 42 80 6 0 7 3 4 6 -3 4 2 18 13 32 11 13 18 28
15 32 -3 4 2 11 11 14 8 3 12 10 9 16 -3 5 -1 10 6 10 7 0 9 3 6 6 -4 4 2 19
13 34 11 15 17 30 13 34 -3 3 -1 6 6 6 7 0 11 5 9 12 -2 6 4 20 14 30 10 10
16 23 13 28 -4 6 -1 10 5 10 6 0 8 5 5 10 -3 6 -1 10 6 10 7 0 9 3 6 7 -4 3 1
12 11 20 11 10 12 12 2 8 -10 -4 -9 -2 3 8 20 16 23 31 5 22 -7 -4 -5 0 4 8
10 8 15 17 11 20 -3 4 -1 7 6 7 7 0 10 4 6 9 -3 5 -1 12 5 16 6 4 8 10 5 15
-3 4 2 10 10 14 8 3 12 12 9 21 -4 8 -1 15 7 15 7 0 9 3 6 6 -3 4 0 16 8 28 8
11 15 29 15 39 0 12 4 16 13 11 6 -4 9 -4 5 1 -4 4 -2 15 5 23 10 13 9 15 -3
8 -13 -7 -13 -6 0 6 8 7 15 18 15 23 0 6 8 26 17 45 21 47 32 73 33 85 1 6 11
29 22 53 12 23 17 40 12 37 -5 -4 -6 1 -3 9 3 9 10 16 16 16 5 0 7 4 3 9 -3 5
-1 12 5 16 6 4 8 11 5 16 -4 5 -2 9 4 9 5 0 8 9 6 20 -2 11 0 20 4 20 8 0 25
56 22 73 0 4 4 7 10 7 6 0 9 8 7 18 -2 9 3 22 12 29 13 11 13 12 0 13 -12 0
-12 2 -2 9 8 5 15 20 15 35 1 14 5 26 8 26 4 0 10 7 13 16 4 10 2 13 -7 8 -9
-5 -9 -4 1 7 6 7 12 21 12 32 0 10 3 16 8 14 4 -3 8 9 9 26 1 17 8 34 15 39 8
4 8 8 2 8 -6 0 -11 7 -11 15 0 8 4 12 9 9 4 -3 9 3 10 13 2 33 3 38 11 51 5 6
6 16 3 21 -3 5 0 11 7 14 8 3 12 18 11 36 -1 17 3 31 9 31 6 0 7 3 4 7 -4 3
-2 12 4 20 9 9 8 13 0 13 -8 0 -6 8 4 23 8 13 12 27 9 30 -4 4 -2 12 3 19 6 7
9 21 8 31 -2 9 2 17 8 17 7 0 5 5 -3 10 -8 5 -10 10 -4 10 15 0 26 40 11 40
-9 0 -9 2 0 8 12 8 23 46 26 92 1 14 8 31 15 39 10 10 10 16 1 27 -6 8 -7 14
-2 14 5 0 10 12 11 26 1 14 5 31 9 37 4 7 8 33 9 58 1 25 7 56 13 68 7 11 9
21 5 21 -3 0 -2 6 5 13 8 10 7 17 -1 25 -8 8 -9 12 -1 12 6 0 10 8 8 18 -1 9
2 22 7 29 6 7 5 20 -2 34 -7 12 -8 19 -2 15 5 -3 12 5 14 19 3 14 1 25 -5 25
-6 0 -2 7 9 15 11 8 14 15 7 15 -16 0 -12 21 7 38 8 8 9 11 3 7 -17 -8 -17 7
0 24 10 11 10 13 0 7 -7 -4 -13 -2 -13 3 0 6 3 11 8 11 4 0 7 21 7 48 0 29 6
52 15 60 8 8 9 11 3 7 -8 -4 -13 0 -13 9 0 9 5 16 11 16 8 0 8 5 -1 15 -7 9
-8 15 -2 15 12 0 11 18 -2 39 -6 9 -5 12 1 8 6 -4 13 2 16 13 3 12 1 18 -5 14
-6 -4 -6 2 1 14 14 27 14 35 -1 26 -10 -6 -10 -5 -1 7 10 12 10 18 0 29 -8 8
-8 11 -1 7 7 -4 14 0 17 7 3 8 1 17 -6 20 -9 3 -8 5 1 5 10 1 10 6 1 22 -6 13
-7 19 -1 15 7 -4 9 6 8 26 -2 18 2 36 8 40 8 5 7 8 -1 8 -9 0 -10 7 -3 26 6
14 8 29 5 34 -3 5 1 11 7 13 10 4 10 6 1 6 -7 1 -10 8 -7 16 4 8 0 23 -7 32
-10 12 -10 15 -1 9 8 -5 12 -1 12 11 0 11 6 25 13 32 6 7 8 12 2 11 -24 -5
-27 1 -9 16 10 8 14 13 7 10 -15 -8 -11 37 5 57 9 10 12 1173 12 4670 l0 4657
-6640 0 -6640 0 0 -4628z m13270 -4682 c0 -5 -5 -10 -11 -10 -5 0 -7 5 -4 10
3 6 8 10 11 10 2 0 4 -4 4 -10z"/>
</g>
</svg>
